<?xml version="1.0" standalone="no"?>
<!DOCTYPE svg PUBLIC "-//W3C//DTD SVG 20010904//EN"
 "http://www.w3.org/TR/2001/REC-SVG-20010904/DTD/svg10.dtd">
<svg version="1.0" xmlns="http://www.w3.org/2000/svg"
 width="263.000000pt" height="263.000000pt" viewBox="0 0 263.000000 263.000000"
 preserveAspectRatio="xMidYMid meet">
<metadata>
Created by potrace 1.11, written by Peter Selinger 2001-2013
</metadata>
<g transform="translate(0.000000,263.000000) scale(0.100000,-0.100000)"
fill="#000000" stroke="none">
<path d="M20 2610 c-20 -20 -20 -33 -20 -1295 0 -1262 0 -1275 20 -1295 48
-48 42 -52 547 452 297 297 476 469 482 463 5 -6 66 -98 136 -205 70 -107 134
-201 143 -208 41 -32 59 -19 284 205 l218 217 0 -450 c0 -446 0 -451 21 -470
20 -18 41 -19 379 -19 338 0 359 1 379 19 l21 19 0 1274 c0 1260 0 1273 -20
1293 -49 49 -23 71 -811 -716 l-737 -736 -44 68 c-476 733 -903 1382 -916
1392 -23 18 -59 15 -82 -8z m2480 -1340 l0 -1130 -270 0 -270 0 0 495 c0 482
-1 496 -20 515 -45 45 -58 36 -320 -225 l-245 -245 -119 181 -118 182 678 678
c374 374 680 679 681 679 2 0 3 -508 3 -1130z m-2029 555 c183 -280 369 -567
415 -636 l82 -126 -419 -419 -419 -419 0 1059 c0 583 2 1057 4 1055 2 -2 153
-233 337 -514z"/>
</g>
</svg>
